<?xml version="1.0" encoding="utf-8"?>
<!-- Generator: Adobe Illustrator 22.1.0, SVG Export Plug-In . SVG Version: 6.00 Build 0)  -->
<svg version="1.1" id="Capa_1" xmlns="http://www.w3.org/2000/svg" xmlns:xlink="http://www.w3.org/1999/xlink" x="0px" y="0px"
	 viewBox="0 0 512 512" style="enable-background:new 0 0 512 512;" xml:space="preserve">
<style type="text/css">
	.st0{fill:#FCFCFC;}
</style>
<g>
	<g>
		<path class="st0" d="M354.8,198.2c0-2.3,0-4.6-0.1-6.9c9.6-7.4,17.9-16.7,24.5-27.2c-8.8,4.1-18.2,6.8-28.1,8
			c10.1-6.5,17.9-16.8,21.6-29.2c-9.5,6-20,10.2-31.1,12.4c-8.9-10.5-21.7-17.2-35.8-17.5c-27.1-0.5-49,23.2-49,52.9
			c0,4.2,0.4,8.3,1.3,12.3c-40.7-2.7-76.9-24.7-101-57.8c-4.2,7.9-6.6,17.2-6.6,27.2c0,18.8,8.6,35.5,21.8,45.4
			c-8-0.4-15.6-2.9-22.2-7c0,0.2,0,0.5,0,0.7c0,26.3,16.9,48.3,39.3,53.4c-4.1,1.2-8.4,1.8-12.9,1.8c-3.2,0-6.2-0.4-9.2-1
			c6.2,21.5,24.3,37.3,45.8,37.8c-16.8,14.4-37.9,23-60.8,23c-4,0-7.9-0.3-11.7-0.8C162,341,187.8,350,215.4,350
			C305.6,350,354.8,268.7,354.8,198.2z"/>
		<path class="st0" d="M512,256C512,114.6,397.4,0,256,0S0,114.6,0,256s114.6,256,256,256S512,397.4,512,256z M23.3,256
			C23.3,127.5,127.5,23.3,256,23.3S488.7,127.5,488.7,256S384.5,488.7,256,488.7S23.3,384.5,23.3,256z"/>
	</g>
</g>
</svg>
