<?xml version="1.0" encoding="utf-8"?>
<!-- Generator: Adobe Illustrator 22.1.0, SVG Export Plug-In . SVG Version: 6.00 Build 0)  -->
<svg version="1.1" id="Capa_1" xmlns="http://www.w3.org/2000/svg" xmlns:xlink="http://www.w3.org/1999/xlink" x="0px" y="0px"
	 viewBox="0 0 512 512" style="enable-background:new 0 0 512 512;" xml:space="preserve">
<style type="text/css">
	.st0{fill:#FCFCFC;}
	.st1{fill:#FFFFFF;}
</style>
<g>
	<g>
		<path class="st0" d="M512,256C512,114.6,397.4,0,256,0S0,114.6,0,256s114.6,256,256,256S512,397.4,512,256z M23.3,256
			C23.3,127.5,127.5,23.3,256,23.3S488.7,127.5,488.7,256S384.5,488.7,256,488.7S23.3,384.5,23.3,256z"/>
		<path class="st1" d="M271.2,403.8V253.7h76.5l12.1-49.7h-88.5v-25c0-13,6.6-25.4,35.3-25.4H364V104h-81.6
			c-68.6,0-87.3,29.3-87.3,69.8v30.1H148v49.8h47.1v150.1L271.2,403.8L271.2,403.8z"/>
	</g>
</g>
</svg>
