<?xml version="1.0" encoding="utf-8"?>
<!-- Generator: Adobe Illustrator 22.1.0, SVG Export Plug-In . SVG Version: 6.00 Build 0)  -->
<svg version="1.1" id="Layer_1" xmlns="http://www.w3.org/2000/svg" xmlns:xlink="http://www.w3.org/1999/xlink" x="0px" y="0px"
	 viewBox="0 0 512 512" style="enable-background:new 0 0 512 512;" xml:space="preserve">
<style type="text/css">
	.st0{fill:#A864A8;}
	.st1{font-family:'Roboto-Black';}
	.st2{font-size:153.5787px;}
	.st3{font-family:'Roboto-Medium';}
	.st4{font-size:189.9759px;}
</style>
<g>
	<g>
		<g>
			<path class="st0" d="M266.2,193.9L142,103.1c-2.4-1.8-5.6-1.8-8,0L9.8,193.9c-3,2.2-3.7,6.5-1.5,9.5c2.2,3,6.5,3.7,9.5,1.5
				L138,117l120.2,87.9c1.2,0.9,2.6,1.3,4,1.3c2.1,0,4.2-1,5.5-2.8C269.9,200.4,269.2,196.1,266.2,193.9z"/>
		</g>
	</g>
	<g>
		<g>
			<path class="st0" d="M168.2,321h68.1c3.8,0,6.8-2.6,6.8-5.7v-97.1c0-3.2-3-5.7-6.8-5.7c-3.8,0-6.8,2.6-6.8,5.7v91.4H175l0-0.3
				c-21,0-16.2,0-35,0s-11,0-23,0l-10,0.3H52.5v-91.4c0-3.2-3-5.7-6.8-5.7s-6.8,2.6-6.8,5.7v97.1c0,3.2,3,5.7,6.8,5.7h68.1"/>
		</g>
	</g>
	<text transform="matrix(0.6658 0 0 1 224.373 321.3818)" class="st0 st1 st2">ECOR</text>
	<text transform="matrix(1.1287 0 0 1 80.375 300.5176)" class="st0 st3 st4">D</text>
</g>
</svg>
